<?xml version="1.0" standalone="no"?>
<!DOCTYPE svg PUBLIC "-//W3C//DTD SVG 20010904//EN"
 "http://www.w3.org/TR/2001/REC-SVG-20010904/DTD/svg10.dtd">
<svg version="1.0" xmlns="http://www.w3.org/2000/svg"
 width="2666.000000pt" height="850.000000pt" viewBox="0 0 2666.000000 850.000000"
 preserveAspectRatio="xMidYMid meet">

<g transform="translate(0.000000,850.000000) scale(0.100000,-0.100000)"
fill="#000000" stroke="none">
<path d="M8460 8494 c0 -4 7 -29 16 -58 29 -92 34 -112 34 -135 0 -12 6 -24
14 -27 8 -3 20 -27 26 -54 6 -27 18 -54 25 -60 7 -6 16 -29 20 -51 4 -21 10
-41 15 -44 4 -3 6 5 3 17 -5 23 -5 23 10 3 8 -11 19 -16 23 -12 5 4 3 11 -3
15 -9 6 -11 47 -2 47 1 0 3 16 4 35 2 19 5 47 8 63 5 25 -1 32 -27 28 -4 -1
-5 10 -2 25 5 17 3 30 -5 35 -7 4 -13 16 -14 26 0 11 -11 36 -23 57 -12 20
-22 45 -22 55 0 9 -5 22 -12 29 -12 12 -88 17 -88 6z"/>
<path d="M8615 7890 c-3 -5 -8 -38 -11 -73 -5 -55 -3 -65 15 -81 12 -11 21
-26 21 -35 0 -9 11 -26 23 -38 13 -12 34 -56 47 -100 28 -90 67 -174 87 -186
7 -4 13 -13 13 -20 0 -7 11 -29 24 -48 14 -20 27 -47 29 -60 9 -51 32 -119 40
-119 5 0 7 -7 3 -15 -4 -10 1 -15 17 -16 12 0 16 -3 10 -6 -8 -2 -13 -22 -13
-44 0 -45 22 -62 48 -36 14 15 14 17 -1 23 -13 5 -15 10 -7 19 8 10 8 15 0 20
-6 4 -8 20 -4 40 3 19 1 35 -5 39 -6 4 -11 16 -11 27 0 11 -7 19 -17 20 -11 0
-13 3 -5 6 14 6 16 33 2 33 -5 0 -10 7 -10 15 0 8 4 15 9 15 14 0 10 48 -5 54
-8 3 -14 16 -14 28 0 13 -6 32 -13 43 -16 24 -41 105 -38 123 1 6 -3 12 -9 12
-5 0 -10 9 -10 20 0 13 -5 18 -15 14 -11 -5 -17 3 -21 25 -4 17 -13 31 -21 31
-8 0 -11 -5 -7 -12 5 -7 3 -8 -6 -3 -8 5 -11 23 -8 56 4 41 2 50 -14 54 -16 6
-16 8 -3 21 21 22 19 44 -5 44 -21 0 -29 20 -7 20 6 0 1 9 -13 20 -19 14 -28
16 -39 7 -11 -10 -12 -6 -6 22 6 30 5 33 -10 27 -13 -4 -16 -2 -11 9 6 17 -19
21 -29 5z"/>
<path d="M8931 6973 c-8 -9 -9 -18 -3 -26 5 -7 12 -24 16 -38 9 -42 56 -50 56
-11 0 10 10 22 22 27 35 16 32 32 -9 46 -52 17 -67 18 -82 2z"/>
<path d="M8957 6850 c-6 -22 17 -48 28 -31 5 9 -10 51 -19 51 -2 0 -6 -9 -9
-20z"/>
<path d="M8987 6793 c-4 -3 -7 -29 -7 -57 0 -55 23 -114 62 -161 53 -65 73
-114 138 -332 12 -39 28 -77 36 -84 9 -7 22 -26 31 -43 9 -17 31 -48 49 -68
18 -21 36 -49 40 -63 3 -14 13 -25 23 -25 10 0 12 -3 4 -8 -6 -4 -9 -19 -6
-34 3 -15 9 -25 14 -22 5 3 9 -2 9 -10 0 -8 -4 -17 -10 -21 -12 -7 -2 -33 27
-68 13 -16 23 -36 23 -46 0 -9 7 -26 15 -37 8 -10 17 -45 21 -76 4 -33 12 -59
20 -62 8 -3 17 -24 20 -46 5 -29 11 -40 20 -36 17 6 18 -6 3 -21 -7 -7 -6 -15
5 -25 8 -9 18 -29 22 -44 4 -16 15 -39 24 -51 9 -12 17 -41 18 -64 1 -24 5
-45 10 -48 4 -3 22 -25 41 -48 18 -24 38 -43 44 -43 7 0 38 -25 70 -55 58 -55
87 -109 87 -164 0 -14 9 -37 20 -51 11 -14 20 -34 20 -46 0 -11 3 -24 7 -28 4
-4 9 -18 10 -32 4 -30 95 -207 118 -230 8 -9 13 -20 9 -25 -3 -6 -1 -15 4 -22
5 -7 12 -34 15 -62 4 -37 11 -54 31 -70 14 -11 26 -25 26 -31 0 -6 8 -19 18
-30 30 -34 46 -68 34 -72 -7 -2 -6 -15 4 -38 8 -20 16 -51 18 -69 1 -19 15
-48 32 -68 30 -36 61 -50 50 -22 -3 8 -2 15 2 15 4 0 8 21 9 48 1 38 -3 52
-24 74 -14 15 -23 33 -20 41 3 8 -5 25 -18 37 -26 24 -36 64 -40 163 -3 67
-15 97 -40 97 -7 0 -16 11 -19 25 -6 24 -26 36 -26 15 0 -21 -43 -3 -45 18 -1
12 2 22 7 22 12 0 2 94 -11 98 -14 5 -15 42 0 42 16 0 -24 61 -48 72 -12 6
-19 16 -17 23 3 6 -2 18 -11 25 -8 7 -15 22 -16 34 0 11 -3 15 -6 9 -2 -7 -9
-13 -14 -13 -6 0 -6 7 0 18 7 14 5 21 -11 31 -20 13 -20 13 2 28 22 15 22 17
5 30 -11 7 -14 13 -7 13 16 0 -1 43 -28 72 -11 12 -20 34 -20 48 0 14 -4 30
-9 36 -5 5 -11 29 -14 53 -5 42 -30 77 -47 66 -4 -3 -14 2 -21 11 -19 23 -59
36 -74 24 -8 -7 -15 -3 -23 15 -6 14 -19 25 -28 25 -13 0 -14 3 -4 15 15 18
-2 45 -29 45 -14 1 -14 2 2 11 17 10 24 59 8 59 -13 0 -51 68 -51 91 0 21 -16
26 -23 7 -2 -7 -10 22 -17 65 -7 43 -15 75 -18 72 -3 -3 -11 0 -19 6 -15 13
-18 85 -3 94 17 10 11 25 -14 36 -18 9 -23 18 -21 38 2 14 -4 37 -13 51 -9 14
-17 28 -17 32 0 3 -4 10 -9 15 -5 5 -6 3 -2 -4 4 -7 3 -13 -2 -13 -15 0 -34
53 -36 102 -1 25 2 44 5 42 14 -8 16 23 4 52 -14 32 -67 94 -81 94 -5 0 -26
16 -47 35 -32 29 -36 38 -27 54 16 30 13 37 -23 59 -35 20 -38 27 -37 105 0
31 -7 58 -18 75 -19 28 -76 142 -77 154 0 3 -13 18 -28 32 -28 26 -48 32 -60
19z"/>
<path d="M2645 6042 c-33 -21 -190 -121 -350 -222 -159 -101 -292 -185 -294
-187 -5 -3 60 -173 67 -173 2 0 49 27 105 61 55 33 105 58 111 55 6 -2 47 -27
91 -53 l80 -49 3 -968 c1 -694 -1 -973 -9 -982 -18 -22 -326 -224 -342 -224
-8 0 -30 11 -50 24 -76 52 -275 145 -344 161 l-72 17 -4 981 c-3 979 -3 982
-25 1066 -34 128 -83 213 -177 306 -128 129 -257 185 -426 185 -288 0 -489
-155 -588 -455 -28 -85 -51 -210 -51 -277 0 -31 0 -31 21 -12 12 10 37 43 56
72 43 64 128 136 203 170 73 34 186 41 259 17 68 -22 151 -98 182 -167 23 -52
24 -60 24 -323 l0 -270 -50 -8 c-182 -29 -240 -51 -310 -122 -69 -68 -97 -138
-103 -252 -6 -110 10 -163 67 -226 38 -42 100 -76 139 -77 18 0 22 6 22 29 0
53 16 77 67 101 71 34 123 37 148 10 19 -21 20 -38 23 -392 2 -284 0 -374 -10
-385 -7 -8 -36 -26 -65 -38 -80 -36 -190 -110 -248 -169 -66 -65 -116 -142
-160 -246 -42 -97 -40 -98 99 -40 145 61 233 81 356 82 173 1 363 -56 599
-178 68 -35 125 -64 127 -64 2 0 36 32 76 71 76 75 128 115 349 271 l137 96
271 -219 c162 -131 279 -219 292 -219 12 0 52 29 97 71 43 39 180 166 305 282
l228 210 -27 28 c-32 33 -21 38 -139 -67 l-80 -71 -152 113 -153 114 0 984 0
984 53 30 c68 38 122 99 157 176 27 58 50 156 36 156 -4 0 -34 -12 -69 -26
-75 -32 -130 -29 -209 9 -84 41 -140 90 -208 182 -34 47 -65 85 -68 85 -4 0
-34 -18 -67 -38z m-1652 -364 c112 -53 210 -181 237 -312 7 -34 9 -359 8 -966
l-3 -915 -22 -3 c-13 -2 -24 -2 -25 0 -2 2 -5 431 -8 953 l-5 950 -27 57 c-15
32 -48 80 -74 108 -117 125 -275 140 -481 45 -88 -41 -92 -42 -68 -15 27 30
122 90 174 112 72 28 217 22 294 -14z m1595 -1270 l2 -1157 200 -162 c132
-108 200 -169 200 -181 0 -38 -43 -12 -245 152 l-205 165 0 1166 c0 641 3
1169 7 1173 4 4 14 5 23 4 13 -3 15 -125 18 -1160z m-1470 300 c-3 -21 -11
-24 -78 -31 -193 -20 -302 -128 -336 -330 l-13 -82 3 100 c3 127 26 185 102
254 62 57 107 76 219 95 111 19 107 19 103 -6z m257 -1578 c133 -24 286 -90
353 -152 48 -46 8 -62 -47 -19 -55 44 -193 108 -282 130 -111 28 -262 44 -364
37 -105 -6 -102 0 5 13 86 11 247 6 335 -9z m-438 -16 c-3 -3 -12 -4 -19 -1
-8 3 -5 6 6 6 11 1 17 -2 13 -5z"/>
<path d="M12577 6039 c-665 -59 -1113 -360 -1143 -770 -15 -204 71 -383 239
-503 230 -163 551 -236 1039 -236 119 0 219 -4 222 -8 2 -4 -14 -32 -36 -61
l-41 -54 -176 7 c-255 10 -408 24 -561 52 -328 60 -506 128 -598 228 -50 55
-112 164 -112 196 0 10 -6 23 -14 29 -28 23 -50 -42 -54 -160 -12 -309 164
-580 476 -738 125 -63 315 -122 485 -151 37 -7 67 -14 67 -16 0 -9 -88 -83
-164 -138 -93 -67 -207 -126 -285 -150 -72 -21 -74 -21 -41 14 84 90 56 246
-52 299 -134 65 -278 -24 -278 -172 0 -108 84 -187 202 -187 164 0 377 99 573
267 l75 64 133 -15 c72 -9 189 -19 260 -22 70 -4 127 -11 127 -16 0 -7 -139
-202 -194 -272 -14 -17 -25 -18 -118 -12 -119 8 -417 -8 -563 -30 -469 -72
-877 -276 -1033 -517 -61 -93 -85 -174 -86 -282 -1 -78 2 -96 24 -135 27 -49
97 -102 158 -121 20 -6 84 -13 143 -16 87 -4 120 -2 190 16 89 22 201 71 284
124 69 44 472 370 573 463 l83 77 105 -17 c199 -32 361 -90 512 -181 l87 -52
40 27 c61 42 102 61 340 155 282 111 331 139 430 239 129 130 195 278 195 437
0 186 -105 354 -300 484 -118 79 -249 128 -447 171 -22 4 -22 6 20 69 30 46
48 65 63 65 75 1 349 -86 474 -150 63 -32 150 -119 185 -184 17 -31 33 -56 36
-56 4 0 17 9 30 19 20 16 24 30 27 94 8 145 -67 346 -188 505 -65 87 -127 142
-211 189 -27 16 -49 31 -49 35 0 11 218 228 228 228 5 0 7 -20 5 -44 -8 -66 4
-112 40 -153 63 -71 149 -90 227 -50 97 49 135 152 92 249 -37 85 -135 132
-222 105 -62 -19 -190 -119 -301 -234 l-91 -96 -57 24 c-31 12 -107 39 -169
59 l-113 36 57 75 c113 147 357 430 412 480 59 52 179 130 322 208 87 48 105
68 96 107 -23 91 -150 22 -343 -187 l-70 -76 -44 39 c-111 96 -297 197 -460
251 -227 75 -486 101 -762 76z m178 -309 c201 -40 412 -125 600 -243 120 -74
160 -109 152 -130 -9 -24 -41 -21 -74 7 -153 128 -470 275 -693 320 -203 41
-453 46 -640 12 -156 -29 -149 -28 -120 -15 176 75 532 98 775 49z m-130 -85
c278 -48 609 -195 827 -367 l37 -29 -70 -90 c-39 -49 -74 -89 -78 -89 -3 0
-55 9 -116 20 -72 13 -198 23 -365 30 -731 29 -929 52 -1067 124 -86 46 -113
79 -113 145 0 141 183 228 580 275 64 8 274 -3 365 -19z m1414 -580 c14 -39
56 -82 98 -101 l28 -12 -30 -1 c-61 -2 -125 64 -125 129 0 31 15 24 29 -15z
m-2408 -141 c36 -39 154 -109 243 -144 218 -87 539 -129 991 -130 580 -1 860
-52 1000 -184 l50 -47 -57 35 c-163 102 -333 125 -1053 146 -349 10 -444 17
-605 45 -230 39 -424 123 -543 236 -40 37 -67 68 -61 69 6 0 21 -12 35 -26z
m1701 -420 l56 -7 -46 -69 c-25 -38 -51 -67 -57 -64 -13 5 -192 24 -318 34
l-88 7 43 59 43 59 155 -7 c85 -3 181 -9 212 -12z m-1610 -302 c73 -50 224
-120 328 -152 198 -61 396 -89 820 -115 423 -26 597 -55 736 -121 77 -36 151
-101 180 -155 l17 -34 -41 37 c-81 73 -177 121 -316 157 -124 32 -260 49 -586
71 -468 31 -647 58 -829 122 -182 64 -349 172 -427 276 -27 36 -27 36 22 -8
27 -25 70 -60 96 -78z m1545 -432 c132 -23 274 -68 349 -110 66 -38 147 -125
164 -174 15 -46 8 -148 -14 -200 -27 -64 -51 -66 -163 -11 -210 102 -460 179
-688 210 -66 9 -132 20 -148 23 l-27 7 86 115 c47 63 93 128 102 144 l17 28
104 -6 c57 -4 155 -16 218 -26z m-1610 -138 c15 -18 46 -39 68 -47 l40 -14
-42 -1 c-30 0 -50 7 -72 25 -33 28 -57 87 -46 113 6 14 9 11 16 -13 5 -16 21
-45 36 -63z m833 -446 c254 -44 585 -159 585 -205 0 -35 -31 -34 -106 3 -380
182 -1039 231 -1443 106 -37 -12 -76 -24 -85 -26 -9 -3 2 5 23 17 80 44 251
92 406 115 127 18 489 12 620 -10z m-157 -96 c12 -11 -135 -145 -328 -299
-131 -105 -191 -146 -261 -178 -119 -55 -239 -89 -362 -103 -152 -16 -217 5
-253 83 -39 86 -16 168 67 248 157 150 425 240 789 263 77 5 339 -6 348 -14z"/>
<path d="M20373 5897 c-17 -18 -82 -96 -146 -174 -65 -78 -138 -160 -163 -182
l-47 -41 25 -37 c58 -87 323 -343 354 -343 6 0 14 10 18 23 9 37 127 177 244
288 l109 105 -47 32 c-97 67 -219 198 -283 304 l-34 57 -30 -32z m-99 -503
c53 -58 96 -112 96 -120 0 -24 -38 -15 -62 15 -13 16 -54 63 -92 105 -57 64
-66 78 -56 91 7 8 14 15 15 15 2 0 47 -48 99 -106z"/>
<path d="M5293 5753 c-72 -87 -156 -182 -187 -212 l-57 -53 27 -42 c29 -45
244 -262 311 -314 l41 -32 30 52 c37 67 166 212 266 302 l77 69 -39 26 c-108
72 -235 206 -293 309 -17 28 -34 52 -38 52 -5 0 -67 -71 -138 -157z m16 -374
c90 -100 102 -121 79 -135 -18 -11 -215 207 -203 226 14 23 37 6 124 -91z"/>
<path d="M19084 5772 c-67 -59 -162 -145 -213 -191 l-91 -83 0 159 c0 172 -8
203 -54 203 -45 0 -46 -4 -46 -372 l0 -348 -92 0 -93 0 -57 -92 c-39 -65 -53
-95 -45 -100 7 -4 74 -8 150 -8 l137 0 0 -791 0 -791 -145 -150 c-80 -82 -145
-152 -145 -156 0 -5 17 -24 38 -45 l37 -37 92 90 c50 49 110 98 133 110 l41
21 215 -176 c141 -115 222 -175 234 -173 11 2 148 120 305 262 l286 260 -30
29 -29 30 -101 -89 c-56 -49 -106 -90 -111 -92 -5 -2 -65 43 -134 100 l-126
103 0 748 0 747 159 0 159 0 61 95 c34 52 61 97 61 100 0 3 -99 5 -220 5
l-220 0 0 370 c0 346 -1 370 -17 370 -10 0 -73 -48 -139 -108z m-274 -1405 l0
-1073 185 -149 c172 -138 202 -171 169 -182 -6 -2 -96 65 -200 150 l-189 153
-3 1087 c-2 1082 -2 1087 18 1087 20 0 20 -6 20 -1073z m-130 673 c0 -18 -7
-20 -80 -20 -60 0 -80 3 -80 13 0 23 11 27 87 27 66 0 73 -2 73 -20z m850 0
c0 -19 -7 -20 -145 -20 -138 0 -145 1 -145 20 0 19 7 20 145 20 138 0 145 -1
145 -20z"/>
<path d="M4170 5813 c-36 -32 -131 -117 -212 -190 -80 -73 -149 -133 -152
-133 -3 0 -7 78 -8 172 l-3 173 -27 9 c-58 20 -58 19 -58 -365 l0 -349 -92 0
-93 0 -58 -91 c-31 -50 -55 -95 -52 -100 4 -5 71 -9 151 -9 l144 0 0 -793 0
-794 -149 -155 -150 -155 41 -40 40 -40 89 87 c49 48 109 98 132 110 l43 23
216 -176 c119 -98 224 -177 233 -177 9 0 146 118 305 263 l289 262 -29 30 -29
29 -23 -20 c-13 -11 -59 -53 -104 -92 -44 -40 -84 -72 -88 -72 -4 0 -65 48
-137 107 l-129 106 0 749 0 748 164 0 164 0 60 93 c33 50 57 95 55 100 -2 4
-103 7 -224 7 l-219 0 0 370 c0 289 -3 370 -12 370 -7 0 -42 -26 -78 -57z
m-330 -1461 l0 -1078 185 -150 c102 -82 185 -155 185 -162 0 -38 -41 -14 -219
130 l-190 153 0 1093 c-1 1086 -1 1092 19 1092 20 0 20 -7 20 -1078z m-130
673 c0 -24 -2 -25 -73 -25 -74 0 -100 11 -90 36 4 10 26 14 84 14 78 0 79 0
79 -25z m845 0 c0 -19 -8 -20 -147 -23 l-148 -3 0 26 0 26 148 -3 c139 -3 147
-4 147 -23z"/>
<path d="M25588 5598 l-217 -223 -1 156 c0 138 -2 158 -18 172 -25 23 -48 21
-66 -5 -14 -20 -16 -154 -17 -1233 l0 -1210 -135 -114 c-74 -62 -134 -117
-134 -120 0 -4 13 -20 29 -35 l30 -29 63 55 c78 68 147 115 180 123 21 6 57
-17 229 -144 115 -85 214 -151 226 -151 14 0 32 14 50 36 51 67 435 400 508
442 18 9 18 12 1 56 -10 25 -20 46 -23 46 -2 0 -49 -36 -102 -80 -54 -44 -101
-80 -105 -80 -4 0 -63 44 -131 97 l-125 96 0 1184 c0 940 -3 1183 -12 1183 -7
0 -111 -100 -230 -222z m-178 -1322 l0 -1031 176 -129 c96 -71 173 -134 171
-140 -2 -6 -10 -12 -18 -14 -13 -2 -303 203 -361 255 -17 15 -18 78 -18 1053
0 1063 1 1079 37 1049 11 -9 13 -199 13 -1043z"/>
<path d="M22129 4888 l-284 -291 -6 99 c-3 54 -9 106 -15 114 -16 27 -330 330
-342 330 -8 0 -148 -130 -496 -461 -19 -18 -19 -19 9 -59 l28 -41 31 28 c17
15 48 43 69 62 l37 35 65 -64 65 -64 0 -586 0 -585 -70 -80 -70 -80 42 -35
c80 -65 299 -272 340 -321 23 -27 46 -49 53 -49 6 0 27 23 45 52 60 91 230
260 329 325 2 1 -24 32 -58 69 l-61 67 0 566 0 566 124 124 124 124 131 -119
131 -119 0 -666 0 -667 128 -70 c148 -82 267 -158 333 -213 26 -22 51 -39 55
-39 5 0 24 23 43 51 57 83 282 284 497 444 l52 38 -18 38 c-9 22 -19 41 -22
44 -2 2 -61 -41 -131 -96 l-126 -100 -51 22 c-64 27 -131 101 -162 177 -23 57
-23 58 -26 637 l-3 581 143 90 143 91 3 56 c2 37 -1 57 -8 57 -6 0 -59 -36
-118 -79 -59 -43 -123 -87 -143 -96 l-37 -18 -48 34 c-75 51 -271 219 -349
298 -38 39 -75 71 -81 71 -6 0 -139 -131 -295 -292z m223 -202 l138 -120 2
-669 3 -669 185 -109 c172 -102 210 -134 175 -146 -6 -2 -101 50 -210 115
l-200 118 -3 671 -2 671 -128 114 c-145 129 -144 128 -130 145 14 17 11 18
170 -121z m-1004 20 l82 -84 0 -642 0 -643 -37 -45 -37 -46 128 -122 c93 -87
127 -126 123 -138 -4 -9 -11 -16 -16 -16 -10 0 -283 256 -289 270 -1 4 15 29
38 56 l40 49 0 630 0 631 -66 64 c-70 70 -88 95 -79 110 13 21 34 7 113 -74z"/>
<path d="M24460 5114 c-257 -217 -549 -349 -842 -379 l-58 -6 0 -704 0 -703
-135 -128 -136 -128 38 -38 37 -38 101 99 c55 55 112 102 127 106 19 5 47 -4
107 -34 99 -50 337 -193 445 -268 44 -30 87 -52 96 -50 12 3 700 540 753 587
4 4 -10 19 -33 34 l-41 27 -179 -137 -179 -136 -236 156 -236 156 3 112 3 112
500 386 c392 304 501 392 503 411 2 20 -48 81 -263 319 -179 199 -273 296
-288 297 -14 2 -45 -17 -87 -53z m31 -490 c112 -129 204 -240 204 -247 0 -51
-96 47 -433 445 -15 18 -9 38 12 38 7 0 105 -106 217 -236z m-112 -70 c117
-135 215 -252 217 -259 3 -8 -90 -87 -245 -209 -138 -108 -253 -196 -256 -196
-3 0 -5 198 -5 440 l0 440 33 14 c17 8 35 15 38 15 3 1 101 -110 218 -245z
m-689 -563 l0 -659 246 -153 c136 -85 249 -160 252 -167 2 -7 0 -18 -5 -23 -7
-7 -96 43 -272 153 l-261 163 0 666 c0 366 3 669 7 672 3 4 12 7 20 7 11 0 13
-116 13 -659z"/>
<path d="M7175 5099 c-154 -129 -386 -263 -553 -319 -93 -31 -239 -60 -303
-60 l-39 0 0 -704 0 -703 -92 -90 c-51 -49 -113 -108 -138 -131 l-45 -41 37
-38 38 -37 98 96 c57 56 110 100 126 104 21 5 43 0 85 -20 80 -40 328 -188
448 -268 56 -37 107 -68 113 -68 6 0 179 133 385 296 259 204 372 300 366 308
-5 6 -22 19 -38 28 l-28 16 -179 -134 -179 -134 -27 18 c-15 9 -120 78 -233
152 l-206 135 -1 626 0 625 35 17 34 16 244 -282 c134 -155 251 -288 260 -296
21 -16 19 -18 262 172 110 86 171 140 173 154 2 15 -66 97 -265 317 -217 240
-273 296 -293 296 -15 0 -48 -20 -85 -51z m30 -486 c113 -131 204 -244 203
-252 -2 -8 -8 -16 -15 -18 -15 -5 -423 465 -423 489 0 10 7 18 15 18 8 0 107
-107 220 -237z m-793 -646 l3 -660 245 -153 c231 -144 272 -178 235 -191 -6
-2 -128 70 -270 159 l-260 163 -3 664 c-1 464 1 668 9 677 6 7 17 10 25 7 12
-4 14 -106 16 -666z"/>
<path d="M8810 5104 c-265 -220 -559 -356 -830 -382 l-75 -7 -3 -707 -2 -706
-133 -126 -132 -126 38 -37 37 -38 86 88 c105 107 133 123 183 108 79 -23 471
-262 586 -356 l68 -56 126 124 c113 111 171 157 199 157 5 0 106 -79 223 -175
119 -97 221 -174 231 -172 9 1 128 103 264 227 136 124 266 241 288 262 l41
36 -29 30 -29 31 -103 -92 c-57 -51 -108 -92 -113 -92 -6 0 -66 46 -135 103
l-126 103 0 617 0 617 -276 308 c-231 258 -280 307 -302 307 -17 0 -47 -16
-82 -46z m22 -489 l203 -235 6 -98 c4 -53 7 -308 8 -567 l2 -470 180 -134
c122 -91 179 -139 177 -150 -2 -9 -10 -16 -18 -15 -8 1 -99 61 -202 134 l-188
133 0 569 0 569 -204 235 c-192 221 -221 264 -181 264 7 0 105 -106 217 -235z
m-108 -75 l185 -215 1 -564 0 -563 -27 17 c-16 10 -121 79 -235 154 l-208 136
0 626 0 625 33 16 c39 20 14 43 251 -232z m-682 -578 l3 -655 245 -153 c135
-85 245 -159 244 -164 -3 -29 -5 -32 -21 -26 -10 4 -131 78 -270 164 l-252
157 -1 672 c0 691 0 700 37 670 10 -7 13 -157 15 -665z"/>
<path d="M15501 5056 c-54 -51 -128 -114 -164 -140 -159 -113 -391 -191 -612
-204 l-120 -7 -3 -706 -2 -707 -120 -107 c-66 -59 -120 -110 -120 -114 0 -4
16 -22 35 -41 l35 -33 99 96 c55 53 111 99 127 103 35 9 78 -7 189 -69 91 -51
303 -189 385 -251 l46 -35 411 337 c227 185 412 340 412 343 1 3 -17 16 -40
28 -35 20 -42 21 -57 9 -9 -8 -103 -85 -209 -171 l-192 -157 -231 153 -230
152 2 130 3 129 420 329 c393 306 420 330 418 357 -2 16 -75 170 -163 343
-158 310 -169 326 -212 327 -4 0 -52 -42 -107 -94z m-16 -507 c77 -132 141
-246 143 -254 5 -20 -18 -29 -33 -14 -25 25 -294 492 -289 501 19 30 47 -6
179 -233z m-113 -69 c82 -139 147 -257 146 -261 -3 -9 -365 -289 -373 -289 -3
0 -5 177 -5 394 l0 393 33 10 c17 6 36 10 41 9 5 -1 76 -116 158 -256z m-638
124 c3 -9 6 -294 6 -634 l0 -618 250 -158 c170 -109 250 -165 250 -176 0 -10
-7 -18 -15 -18 -8 0 -132 75 -275 166 l-260 166 0 637 c0 351 3 641 7 644 11
12 31 7 37 -9z"/>
<path d="M16288 4924 c-148 -124 -268 -228 -268 -232 1 -4 14 -22 30 -41 l29
-34 74 60 74 61 77 -77 76 -76 0 -589 0 -588 -70 -81 -71 -81 43 -36 c79 -65
298 -272 340 -321 23 -27 47 -49 53 -49 7 0 90 79 184 176 153 156 171 178
159 192 -8 10 -31 36 -51 60 l-37 42 0 558 0 557 124 124 124 124 130 -109
131 -109 0 -626 1 -626 108 -89 c59 -49 150 -131 202 -181 52 -51 101 -93 109
-93 7 0 136 108 286 240 l274 240 -26 48 c-15 26 -27 48 -28 50 -1 1 -47 -36
-101 -83 -54 -47 -101 -85 -104 -85 -20 1 -88 51 -107 79 -57 84 -57 87 -60
726 l-3 590 125 137 126 138 -3 62 -3 63 -59 -75 c-81 -102 -134 -157 -167
-171 -25 -10 -35 -8 -84 20 -95 54 -227 152 -310 232 l-79 77 -301 -294 -300
-294 -6 122 c-4 68 -11 134 -17 148 -12 30 -325 340 -344 340 -7 0 -133 -102
-280 -226z m139 -206 l83 -83 0 -653 0 -654 -32 -41 -32 -40 128 -123 c93 -87
127 -126 123 -138 -4 -9 -11 -16 -16 -16 -10 0 -284 256 -289 271 -2 5 15 30
37 57 l41 48 0 634 0 635 -81 81 c-74 75 -90 104 -56 104 6 0 49 -37 94 -82z
m1011 -78 l132 -105 0 -575 c0 -316 3 -604 7 -640 l6 -65 138 -118 c96 -82
136 -122 132 -133 -3 -8 -12 -14 -19 -12 -8 2 -79 59 -159 127 l-145 123 0
633 0 633 -122 98 c-67 55 -129 104 -137 110 -13 10 -13 14 -2 28 16 19 10 23
169 -104z"/>
<path d="M19973 4887 l-232 -262 32 -33 31 -32 61 60 61 60 47 -48 47 -48 0
-666 0 -667 -115 -100 c-63 -56 -116 -104 -117 -107 -2 -10 52 -74 62 -74 5 0
55 40 112 89 l102 89 76 -53 c304 -214 365 -255 375 -255 15 0 535 509 535
523 -1 22 -39 59 -52 51 -7 -4 -48 -39 -90 -77 l-76 -68 -54 25 c-74 35 -128
84 -163 147 l-30 54 -3 600 -3 600 153 147 153 146 -34 36 -35 36 -96 -98
c-53 -53 -112 -106 -132 -116 -33 -18 -40 -19 -64 -5 -15 7 -86 77 -158 154
-128 137 -146 155 -156 154 -3 0 -109 -118 -237 -262z m110 -185 l67 -67 2
-690 3 -690 167 -125 c92 -69 169 -130 172 -137 3 -6 -1 -16 -8 -22 -10 -9
-56 21 -195 125 l-181 137 0 691 0 690 -61 62 c-42 42 -60 67 -56 78 4 9 10
16 14 16 5 0 39 -30 76 -68z"/>
<path d="M5001 4869 l-233 -261 28 -29 c15 -16 32 -29 36 -29 5 0 35 27 66 61
l56 61 48 -53 47 -54 1 -667 0 -666 -112 -98 c-62 -53 -116 -100 -120 -104 -8
-6 48 -80 61 -80 4 0 54 40 111 89 57 50 108 87 114 83 6 -3 103 -71 216 -150
113 -80 212 -147 220 -149 10 -3 115 94 283 259 l268 263 -24 29 -24 30 -30
-25 c-17 -13 -58 -47 -90 -76 l-60 -52 -59 28 c-79 37 -147 107 -173 176 -20
54 -21 74 -21 639 l0 584 153 150 152 151 -33 33 -32 33 -98 -96 c-53 -53
-108 -104 -122 -113 -54 -36 -68 -27 -226 139 -82 85 -153 155 -159 155 -6 0
-116 -117 -244 -261z m116 -181 l63 -62 0 -693 0 -693 175 -131 c96 -72 175
-135 175 -139 0 -4 -6 -13 -14 -19 -10 -9 -52 19 -195 126 l-181 136 0 696 0
695 -61 62 c-56 56 -68 84 -36 84 6 0 40 -28 74 -62z"/>
<path d="M10261 3606 c-17 -20 -6 -98 16 -113 11 -8 18 -29 19 -58 2 -29 10
-53 24 -67 11 -12 19 -27 18 -32 -2 -6 2 -11 7 -11 13 0 7 48 -8 57 -8 4 -7
11 3 23 11 13 11 20 0 40 -11 21 -11 27 2 42 14 16 14 21 -2 48 -10 17 -22 29
-28 28 -5 -1 -9 3 -9 10 1 48 -18 63 -42 33z"/>
<path d="M10366 3313 c-11 -66 -5 -133 11 -133 8 0 11 5 8 10 -3 6 1 10 11 10
13 0 14 3 4 15 -7 9 -8 15 -2 15 5 0 10 20 9 44 0 25 -4 43 -9 40 -4 -3 -8 4
-8 15 0 36 -18 23 -24 -16z"/>
<path d="M10395 2973 c7 -78 15 -113 32 -146 17 -35 27 -75 32 -128 0 -8 7
-23 14 -33 11 -16 17 -17 36 -7 20 11 22 17 16 64 -4 29 -9 55 -12 60 -2 4 1
7 6 7 20 0 11 19 -18 36 -25 15 -28 21 -25 64 2 36 -2 53 -17 68 -10 12 -19
26 -19 32 0 5 -6 9 -12 8 -7 -2 -12 5 -12 15 1 9 -4 17 -12 17 -10 0 -12 -13
-9 -57z"/>
<path d="M10509 2640 c-17 -10 -17 -81 2 -162 8 -36 16 -48 32 -50 19 -3 23
-11 27 -63 4 -45 9 -61 21 -63 14 -3 17 6 15 58 -1 33 0 63 3 66 2 2 5 15 6
28 1 28 -26 41 -45 22 -10 -8 -10 -6 -2 9 32 62 53 116 47 125 -3 5 -17 10
-31 10 -14 0 -27 7 -30 15 -7 17 -22 19 -45 5z"/>
<path d="M10598 2243 c0 -21 -3 -51 -5 -68 -7 -54 -3 -109 13 -165 9 -30 18
-77 20 -103 5 -54 18 -86 44 -104 10 -7 20 -25 23 -40 3 -15 23 -46 44 -69 21
-22 43 -51 49 -65 39 -85 57 -141 61 -189 3 -30 9 -60 14 -65 4 -6 11 -31 15
-55 4 -27 23 -69 45 -104 22 -32 39 -64 39 -71 0 -7 4 -15 10 -17 5 -1 19 -30
31 -63 11 -33 26 -63 31 -66 6 -4 12 -25 13 -48 1 -22 8 -48 16 -57 8 -10 12
-20 9 -23 -3 -3 4 -10 16 -15 20 -9 20 -10 -9 -38 -17 -15 -28 -30 -26 -31 2
-2 16 -10 30 -19 14 -9 26 -23 26 -32 0 -18 54 -129 66 -134 4 -2 7 -16 7 -30
1 -20 12 -35 41 -57 86 -65 106 -86 143 -154 22 -39 51 -78 65 -88 34 -22 101
-90 131 -134 14 -20 46 -59 72 -88 l47 -51 125 0 c69 0 126 4 126 9 0 16 -29
33 -45 27 -9 -3 -13 -2 -10 3 3 6 -2 14 -11 19 -12 7 -15 15 -9 28 5 11 7 24
6 29 -2 6 -3 27 -3 47 1 23 -5 38 -14 42 -8 3 -14 12 -14 20 0 8 -10 16 -22
18 -13 2 -23 10 -23 18 0 8 -12 23 -27 32 -16 10 -28 22 -28 27 0 5 -9 11 -20
14 -15 4 -20 14 -20 36 0 25 -4 31 -21 31 -17 0 -19 3 -10 14 14 17 -2 32 -21
20 -8 -5 -9 -2 -5 10 5 13 1 19 -13 23 -11 3 -20 13 -20 22 -1 24 -34 59 -61
64 -36 6 -60 18 -54 27 3 5 1 11 -5 15 -6 4 -8 11 -5 16 4 5 2 9 -3 9 -5 0 -8
18 -6 39 3 33 -2 44 -29 71 -36 36 -66 50 -106 50 -30 0 -61 27 -61 53 0 9 -8
17 -17 17 -16 1 -16 2 1 15 15 11 16 15 5 19 -8 2 -31 10 -51 16 -34 10 -37
14 -36 51 0 21 -5 46 -12 54 -6 8 -9 19 -5 25 4 6 -6 15 -23 21 -43 15 -46 27
-27 100 4 16 2 30 -4 33 -6 4 -11 23 -11 42 0 20 -5 34 -12 34 -9 0 -10 2 -2
8 20 13 27 52 11 70 -8 9 -20 31 -28 49 -7 17 -16 30 -20 27 -4 -2 -7 8 -7 23
1 39 -10 71 -25 69 -7 0 -13 4 -15 9 -2 6 -9 17 -16 25 -17 20 -30 52 -27 68
3 20 -40 74 -55 68 -9 -4 -14 2 -14 17 0 12 -7 44 -15 72 -9 27 -13 55 -11 62
3 7 1 13 -5 13 -6 0 -3 7 5 16 15 14 14 18 -15 45 -19 17 -29 35 -25 44 3 9
-1 15 -11 15 -13 0 -13 3 -3 15 10 12 10 15 -4 15 -9 0 -24 8 -33 18 -10 9
-24 17 -30 18 -7 1 -18 2 -24 3 -6 0 -9 13 -7 28 4 34 -19 42 -31 11 -6 -12
-10 -18 -11 -13 -5 33 -10 49 -17 54 -10 7 -10 37 0 47 12 12 8 46 -4 38 -8
-5 -8 -1 0 13 7 14 7 23 -1 31 -7 7 -8 12 -4 12 5 0 3 7 -4 15 -20 24 -30 17
-32 -22z"/>
</g>
</svg>
